<mxfile host="app.diagrams.net" modified="2021-04-06T14:10:29.949Z" agent="5.0 (Windows NT 10.0; Win64; x64) AppleWebKit/537.36 (KHTML, like Gecko) Chrome/89.0.4389.82 Safari/537.36" etag="RL9pOPPVTqwjprV7XnD3" version="14.5.7" type="github">
  <diagram id="MtbKMPOXMnYXm8d6PsFU" name="Page-1">
    <mxGraphModel dx="1038" dy="1528" grid="1" gridSize="10" guides="1" tooltips="1" connect="1" arrows="1" fold="1" page="1" pageScale="1" pageWidth="1390" pageHeight="980" math="0" shadow="0">
      <root>
        <mxCell id="0" />
        <mxCell id="MlDcXop1AC1W3A7whgLZ-9" parent="0" />
        <mxCell id="MlDcXop1AC1W3A7whgLZ-30" value="" style="edgeStyle=orthogonalEdgeStyle;rounded=0;orthogonalLoop=1;jettySize=auto;html=1;fontSize=13;" parent="MlDcXop1AC1W3A7whgLZ-9" source="MlDcXop1AC1W3A7whgLZ-13" target="MlDcXop1AC1W3A7whgLZ-29" edge="1">
          <mxGeometry relative="1" as="geometry" />
        </mxCell>
        <mxCell id="MlDcXop1AC1W3A7whgLZ-13" value="" style="aspect=fixed;perimeter=ellipsePerimeter;html=1;align=center;shadow=0;dashed=0;spacingTop=3;image;image=img/lib/active_directory/user.svg;" parent="MlDcXop1AC1W3A7whgLZ-9" vertex="1">
          <mxGeometry x="415.75" y="-950" width="18.5" height="50" as="geometry" />
        </mxCell>
        <object label="" id="MlDcXop1AC1W3A7whgLZ-16">
          <mxCell style="whiteSpace=wrap;html=1;shadow=0;dashed=0;verticalAlign=top;labelBackgroundColor=white;spacingTop=3;fillColor=#f0a30a;strokeColor=#BD7000;fontColor=#ffffff;fontStyle=1;labelBorderColor=none;fontSize=13;" parent="MlDcXop1AC1W3A7whgLZ-9" vertex="1">
            <mxGeometry x="120" y="-797.5" width="614.25" height="17.5" as="geometry" />
          </mxCell>
        </object>
        <mxCell id="MlDcXop1AC1W3A7whgLZ-18" value="&lt;b&gt;GTM&lt;/b&gt;" style="text;html=1;strokeColor=none;fillColor=none;align=center;verticalAlign=middle;whiteSpace=wrap;rounded=0;fontSize=13;" parent="MlDcXop1AC1W3A7whgLZ-9" vertex="1">
          <mxGeometry x="407.12" y="-797.5" width="40" height="20" as="geometry" />
        </mxCell>
        <mxCell id="MlDcXop1AC1W3A7whgLZ-19" value="" style="shape=ext;rounded=1;html=1;whiteSpace=wrap;dashed=1;fontSize=13;align=left;strokeColor=#FF3333;strokeWidth=2;" parent="MlDcXop1AC1W3A7whgLZ-9" vertex="1">
          <mxGeometry x="117.87" y="-700" width="302.13" height="300" as="geometry" />
        </mxCell>
        <mxCell id="MlDcXop1AC1W3A7whgLZ-21" value="" style="rounded=1;whiteSpace=wrap;html=1;fontSize=13;fillColor=#f0a30a;strokeColor=#BD7000;fontColor=#ffffff;" parent="MlDcXop1AC1W3A7whgLZ-9" vertex="1">
          <mxGeometry x="120" y="-740" width="300" height="20" as="geometry" />
        </mxCell>
        <mxCell id="MlDcXop1AC1W3A7whgLZ-22" value="Data Center(DMZ)" style="text;html=1;strokeColor=none;fillColor=none;align=center;verticalAlign=middle;whiteSpace=wrap;rounded=0;fontSize=13;" parent="MlDcXop1AC1W3A7whgLZ-9" vertex="1">
          <mxGeometry x="210" y="-740" width="170" height="20" as="geometry" />
        </mxCell>
        <mxCell id="MlDcXop1AC1W3A7whgLZ-23" value="" style="rounded=1;whiteSpace=wrap;html=1;fontSize=13;fillColor=#f0a30a;strokeColor=#BD7000;fontColor=#ffffff;" parent="MlDcXop1AC1W3A7whgLZ-9" vertex="1">
          <mxGeometry x="434.25" y="-740" width="300" height="20" as="geometry" />
        </mxCell>
        <mxCell id="MlDcXop1AC1W3A7whgLZ-24" value="Data Center(CORE)" style="text;html=1;strokeColor=none;fillColor=none;align=center;verticalAlign=middle;whiteSpace=wrap;rounded=0;fontSize=13;" parent="MlDcXop1AC1W3A7whgLZ-9" vertex="1">
          <mxGeometry x="480" y="-740" width="170" height="20" as="geometry" />
        </mxCell>
        <mxCell id="MlDcXop1AC1W3A7whgLZ-25" value="" style="strokeWidth=2;html=1;shape=mxgraph.flowchart.annotation_2;align=left;labelPosition=right;pointerEvents=1;fontSize=13;rotation=90;" parent="MlDcXop1AC1W3A7whgLZ-9" vertex="1">
          <mxGeometry x="408.08" y="-809.11" width="36.41" height="100.38" as="geometry" />
        </mxCell>
        <mxCell id="MlDcXop1AC1W3A7whgLZ-27" value="&lt;b&gt;LTM&lt;/b&gt;" style="rounded=0;whiteSpace=wrap;html=1;fontSize=13;strokeColor=#FFD966;strokeWidth=2;" parent="MlDcXop1AC1W3A7whgLZ-9" vertex="1">
          <mxGeometry x="140" y="-690" width="260" height="20" as="geometry" />
        </mxCell>
        <mxCell id="MlDcXop1AC1W3A7whgLZ-28" value="" style="shape=ext;rounded=1;html=1;whiteSpace=wrap;fontSize=13;align=left;strokeColor=#FF3333;" parent="MlDcXop1AC1W3A7whgLZ-9" vertex="1">
          <mxGeometry x="124.74" y="-840" width="604.78" height="20.89" as="geometry" />
        </mxCell>
        <mxCell id="MlDcXop1AC1W3A7whgLZ-29" value="&lt;font style=&quot;font-size: 10px&quot;&gt;&lt;b&gt;Stargate Service&lt;/b&gt;&lt;/font&gt;" style="text;html=1;strokeColor=none;fillColor=none;align=center;verticalAlign=middle;whiteSpace=wrap;rounded=0;fontSize=13;" parent="MlDcXop1AC1W3A7whgLZ-9" vertex="1">
          <mxGeometry x="380.8" y="-840" width="90" height="20" as="geometry" />
        </mxCell>
        <mxCell id="MlDcXop1AC1W3A7whgLZ-32" value="" style="rounded=0;whiteSpace=wrap;html=1;strokeColor=#B20000;fontSize=13;fillColor=#e51400;fontColor=#ffffff;" parent="MlDcXop1AC1W3A7whgLZ-9" vertex="1">
          <mxGeometry x="130" y="-660" width="280" height="160" as="geometry" />
        </mxCell>
        <mxCell id="MlDcXop1AC1W3A7whgLZ-33" value="&lt;b&gt;&lt;font style=&quot;font-size: 14px&quot;&gt;Openshift&lt;/font&gt;&lt;/b&gt;" style="text;html=1;strokeColor=none;fillColor=none;align=center;verticalAlign=middle;whiteSpace=wrap;rounded=0;fontSize=13;" parent="MlDcXop1AC1W3A7whgLZ-9" vertex="1">
          <mxGeometry x="150" y="-660" width="40" height="20" as="geometry" />
        </mxCell>
        <mxCell id="MlDcXop1AC1W3A7whgLZ-34" value="" style="rounded=1;whiteSpace=wrap;html=1;strokeColor=#FFD966;fontSize=13;" parent="MlDcXop1AC1W3A7whgLZ-9" vertex="1">
          <mxGeometry x="150" y="-640" width="240" height="130" as="geometry" />
        </mxCell>
        <mxCell id="MlDcXop1AC1W3A7whgLZ-35" value="Node" style="text;html=1;strokeColor=none;fillColor=none;align=center;verticalAlign=middle;whiteSpace=wrap;rounded=0;fontSize=13;" parent="MlDcXop1AC1W3A7whgLZ-9" vertex="1">
          <mxGeometry x="160" y="-630" width="40" height="20" as="geometry" />
        </mxCell>
        <mxCell id="vLLnf83wIPIp4JsTKj6S-0" value="" style="shape=card;whiteSpace=wrap;html=1;strokeColor=#FFD966;fontSize=13;size=20;" vertex="1" parent="MlDcXop1AC1W3A7whgLZ-9">
          <mxGeometry x="190" y="-630" width="40" height="50" as="geometry" />
        </mxCell>
        <mxCell id="vLLnf83wIPIp4JsTKj6S-1" value="" style="shape=card;whiteSpace=wrap;html=1;strokeColor=#FFD966;fontSize=13;size=20;" vertex="1" parent="MlDcXop1AC1W3A7whgLZ-9">
          <mxGeometry x="190" y="-570" width="40" height="50" as="geometry" />
        </mxCell>
        <mxCell id="vLLnf83wIPIp4JsTKj6S-2" value="" style="shape=card;whiteSpace=wrap;html=1;strokeColor=#FFD966;fontSize=13;size=20;" vertex="1" parent="MlDcXop1AC1W3A7whgLZ-9">
          <mxGeometry x="300" y="-630" width="40" height="50" as="geometry" />
        </mxCell>
        <mxCell id="vLLnf83wIPIp4JsTKj6S-3" value="" style="shape=card;whiteSpace=wrap;html=1;strokeColor=#FFD966;fontSize=13;size=20;" vertex="1" parent="MlDcXop1AC1W3A7whgLZ-9">
          <mxGeometry x="240" y="-630" width="40" height="50" as="geometry" />
        </mxCell>
        <mxCell id="vLLnf83wIPIp4JsTKj6S-4" value="" style="shape=card;whiteSpace=wrap;html=1;strokeColor=#FFD966;fontSize=13;size=20;" vertex="1" parent="MlDcXop1AC1W3A7whgLZ-9">
          <mxGeometry x="300" y="-570" width="40" height="50" as="geometry" />
        </mxCell>
        <mxCell id="vLLnf83wIPIp4JsTKj6S-5" value="" style="shape=card;whiteSpace=wrap;html=1;strokeColor=#FFD966;fontSize=13;size=20;" vertex="1" parent="MlDcXop1AC1W3A7whgLZ-9">
          <mxGeometry x="240" y="-570" width="40" height="50" as="geometry" />
        </mxCell>
        <mxCell id="vLLnf83wIPIp4JsTKj6S-6" value="Pod" style="text;html=1;strokeColor=none;fillColor=none;align=center;verticalAlign=middle;whiteSpace=wrap;rounded=0;fontSize=13;" vertex="1" parent="MlDcXop1AC1W3A7whgLZ-9">
          <mxGeometry x="190" y="-600" width="40" height="20" as="geometry" />
        </mxCell>
        <mxCell id="vLLnf83wIPIp4JsTKj6S-7" value="Pod" style="text;html=1;strokeColor=none;fillColor=none;align=center;verticalAlign=middle;whiteSpace=wrap;rounded=0;fontSize=13;" vertex="1" parent="MlDcXop1AC1W3A7whgLZ-9">
          <mxGeometry x="240" y="-540" width="40" height="20" as="geometry" />
        </mxCell>
        <mxCell id="vLLnf83wIPIp4JsTKj6S-8" value="Pod" style="text;html=1;strokeColor=none;fillColor=none;align=center;verticalAlign=middle;whiteSpace=wrap;rounded=0;fontSize=13;" vertex="1" parent="MlDcXop1AC1W3A7whgLZ-9">
          <mxGeometry x="190" y="-540" width="40" height="20" as="geometry" />
        </mxCell>
        <mxCell id="vLLnf83wIPIp4JsTKj6S-9" value="Pod" style="text;html=1;strokeColor=none;fillColor=none;align=center;verticalAlign=middle;whiteSpace=wrap;rounded=0;fontSize=13;" vertex="1" parent="MlDcXop1AC1W3A7whgLZ-9">
          <mxGeometry x="240" y="-600" width="40" height="20" as="geometry" />
        </mxCell>
        <mxCell id="vLLnf83wIPIp4JsTKj6S-10" value="Pod" style="text;html=1;strokeColor=none;fillColor=none;align=center;verticalAlign=middle;whiteSpace=wrap;rounded=0;fontSize=13;" vertex="1" parent="MlDcXop1AC1W3A7whgLZ-9">
          <mxGeometry x="300" y="-600" width="40" height="20" as="geometry" />
        </mxCell>
        <mxCell id="vLLnf83wIPIp4JsTKj6S-11" value="Pod" style="text;html=1;strokeColor=none;fillColor=none;align=center;verticalAlign=middle;whiteSpace=wrap;rounded=0;fontSize=13;" vertex="1" parent="MlDcXop1AC1W3A7whgLZ-9">
          <mxGeometry x="300" y="-540" width="40" height="20" as="geometry" />
        </mxCell>
        <mxCell id="vLLnf83wIPIp4JsTKj6S-18" value="Registry" style="outlineConnect=0;fontColor=#232F3E;gradientColor=none;strokeColor=#232F3E;fillColor=#ffffff;dashed=0;verticalLabelPosition=bottom;verticalAlign=top;align=center;html=1;fontSize=12;fontStyle=0;aspect=fixed;shape=mxgraph.aws4.resourceIcon;resIcon=mxgraph.aws4.registry;" vertex="1" parent="MlDcXop1AC1W3A7whgLZ-9">
          <mxGeometry x="320" y="-490" width="60" height="60" as="geometry" />
        </mxCell>
        <mxCell id="vLLnf83wIPIp4JsTKj6S-19" value="" style="image;html=1;image=img/lib/clip_art/computers/Database_128x128.png;strokeColor=#FFD966;fontSize=13;" vertex="1" parent="MlDcXop1AC1W3A7whgLZ-9">
          <mxGeometry x="160" y="-490" width="80" height="80" as="geometry" />
        </mxCell>
        <mxCell id="vLLnf83wIPIp4JsTKj6S-20" value="" style="shape=ext;rounded=1;html=1;whiteSpace=wrap;dashed=1;fontSize=13;align=left;strokeColor=#FF3333;strokeWidth=2;" vertex="1" parent="MlDcXop1AC1W3A7whgLZ-9">
          <mxGeometry x="444.49" y="-700" width="302.13" height="300" as="geometry" />
        </mxCell>
        <mxCell id="vLLnf83wIPIp4JsTKj6S-21" value="&lt;b&gt;LTM&lt;/b&gt;" style="rounded=0;whiteSpace=wrap;html=1;fontSize=13;strokeColor=#FFD966;strokeWidth=2;" vertex="1" parent="MlDcXop1AC1W3A7whgLZ-9">
          <mxGeometry x="466.62" y="-690" width="260" height="20" as="geometry" />
        </mxCell>
        <mxCell id="vLLnf83wIPIp4JsTKj6S-22" value="" style="rounded=0;whiteSpace=wrap;html=1;strokeColor=#B20000;fontSize=13;fillColor=#e51400;fontColor=#ffffff;" vertex="1" parent="MlDcXop1AC1W3A7whgLZ-9">
          <mxGeometry x="456.62" y="-660" width="280" height="160" as="geometry" />
        </mxCell>
        <mxCell id="vLLnf83wIPIp4JsTKj6S-23" value="&lt;b&gt;&lt;font style=&quot;font-size: 14px&quot;&gt;Openshift&lt;/font&gt;&lt;/b&gt;" style="text;html=1;strokeColor=none;fillColor=none;align=center;verticalAlign=middle;whiteSpace=wrap;rounded=0;fontSize=13;" vertex="1" parent="MlDcXop1AC1W3A7whgLZ-9">
          <mxGeometry x="476.62" y="-660" width="40" height="20" as="geometry" />
        </mxCell>
        <mxCell id="vLLnf83wIPIp4JsTKj6S-24" value="" style="rounded=1;whiteSpace=wrap;html=1;strokeColor=#FFD966;fontSize=13;" vertex="1" parent="MlDcXop1AC1W3A7whgLZ-9">
          <mxGeometry x="476.62" y="-640" width="240" height="130" as="geometry" />
        </mxCell>
        <mxCell id="vLLnf83wIPIp4JsTKj6S-25" value="Node" style="text;html=1;strokeColor=none;fillColor=none;align=center;verticalAlign=middle;whiteSpace=wrap;rounded=0;fontSize=13;" vertex="1" parent="MlDcXop1AC1W3A7whgLZ-9">
          <mxGeometry x="486.62" y="-630" width="40" height="20" as="geometry" />
        </mxCell>
        <mxCell id="vLLnf83wIPIp4JsTKj6S-26" value="" style="shape=card;whiteSpace=wrap;html=1;strokeColor=#FFD966;fontSize=13;size=20;" vertex="1" parent="MlDcXop1AC1W3A7whgLZ-9">
          <mxGeometry x="516.62" y="-630" width="40" height="50" as="geometry" />
        </mxCell>
        <mxCell id="vLLnf83wIPIp4JsTKj6S-27" value="" style="shape=card;whiteSpace=wrap;html=1;strokeColor=#FFD966;fontSize=13;size=20;" vertex="1" parent="MlDcXop1AC1W3A7whgLZ-9">
          <mxGeometry x="516.62" y="-570" width="40" height="50" as="geometry" />
        </mxCell>
        <mxCell id="vLLnf83wIPIp4JsTKj6S-28" value="" style="shape=card;whiteSpace=wrap;html=1;strokeColor=#FFD966;fontSize=13;size=20;" vertex="1" parent="MlDcXop1AC1W3A7whgLZ-9">
          <mxGeometry x="626.62" y="-630" width="40" height="50" as="geometry" />
        </mxCell>
        <mxCell id="vLLnf83wIPIp4JsTKj6S-29" value="" style="shape=card;whiteSpace=wrap;html=1;strokeColor=#FFD966;fontSize=13;size=20;" vertex="1" parent="MlDcXop1AC1W3A7whgLZ-9">
          <mxGeometry x="566.62" y="-630" width="40" height="50" as="geometry" />
        </mxCell>
        <mxCell id="vLLnf83wIPIp4JsTKj6S-30" value="" style="shape=card;whiteSpace=wrap;html=1;strokeColor=#FFD966;fontSize=13;size=20;" vertex="1" parent="MlDcXop1AC1W3A7whgLZ-9">
          <mxGeometry x="626.62" y="-570" width="40" height="50" as="geometry" />
        </mxCell>
        <mxCell id="vLLnf83wIPIp4JsTKj6S-31" value="" style="shape=card;whiteSpace=wrap;html=1;strokeColor=#FFD966;fontSize=13;size=20;" vertex="1" parent="MlDcXop1AC1W3A7whgLZ-9">
          <mxGeometry x="566.62" y="-570" width="40" height="50" as="geometry" />
        </mxCell>
        <mxCell id="vLLnf83wIPIp4JsTKj6S-32" value="Pod" style="text;html=1;strokeColor=none;fillColor=none;align=center;verticalAlign=middle;whiteSpace=wrap;rounded=0;fontSize=13;" vertex="1" parent="MlDcXop1AC1W3A7whgLZ-9">
          <mxGeometry x="516.62" y="-600" width="40" height="20" as="geometry" />
        </mxCell>
        <mxCell id="vLLnf83wIPIp4JsTKj6S-33" value="Pod" style="text;html=1;strokeColor=none;fillColor=none;align=center;verticalAlign=middle;whiteSpace=wrap;rounded=0;fontSize=13;" vertex="1" parent="MlDcXop1AC1W3A7whgLZ-9">
          <mxGeometry x="566.62" y="-540" width="40" height="20" as="geometry" />
        </mxCell>
        <mxCell id="vLLnf83wIPIp4JsTKj6S-34" value="Pod" style="text;html=1;strokeColor=none;fillColor=none;align=center;verticalAlign=middle;whiteSpace=wrap;rounded=0;fontSize=13;" vertex="1" parent="MlDcXop1AC1W3A7whgLZ-9">
          <mxGeometry x="516.62" y="-540" width="40" height="20" as="geometry" />
        </mxCell>
        <mxCell id="vLLnf83wIPIp4JsTKj6S-35" value="Pod" style="text;html=1;strokeColor=none;fillColor=none;align=center;verticalAlign=middle;whiteSpace=wrap;rounded=0;fontSize=13;" vertex="1" parent="MlDcXop1AC1W3A7whgLZ-9">
          <mxGeometry x="566.62" y="-600" width="40" height="20" as="geometry" />
        </mxCell>
        <mxCell id="vLLnf83wIPIp4JsTKj6S-36" value="Pod" style="text;html=1;strokeColor=none;fillColor=none;align=center;verticalAlign=middle;whiteSpace=wrap;rounded=0;fontSize=13;" vertex="1" parent="MlDcXop1AC1W3A7whgLZ-9">
          <mxGeometry x="626.62" y="-600" width="40" height="20" as="geometry" />
        </mxCell>
        <mxCell id="vLLnf83wIPIp4JsTKj6S-37" value="Pod" style="text;html=1;strokeColor=none;fillColor=none;align=center;verticalAlign=middle;whiteSpace=wrap;rounded=0;fontSize=13;" vertex="1" parent="MlDcXop1AC1W3A7whgLZ-9">
          <mxGeometry x="626.62" y="-540" width="40" height="20" as="geometry" />
        </mxCell>
        <mxCell id="vLLnf83wIPIp4JsTKj6S-38" value="Registry" style="outlineConnect=0;fontColor=#232F3E;gradientColor=none;strokeColor=#232F3E;fillColor=#ffffff;dashed=0;verticalLabelPosition=bottom;verticalAlign=top;align=center;html=1;fontSize=12;fontStyle=0;aspect=fixed;shape=mxgraph.aws4.resourceIcon;resIcon=mxgraph.aws4.registry;" vertex="1" parent="MlDcXop1AC1W3A7whgLZ-9">
          <mxGeometry x="646.62" y="-490" width="60" height="60" as="geometry" />
        </mxCell>
        <mxCell id="vLLnf83wIPIp4JsTKj6S-39" value="" style="image;html=1;image=img/lib/clip_art/computers/Database_128x128.png;strokeColor=#FFD966;fontSize=13;" vertex="1" parent="MlDcXop1AC1W3A7whgLZ-9">
          <mxGeometry x="486.62" y="-490" width="80" height="80" as="geometry" />
        </mxCell>
      </root>
    </mxGraphModel>
  </diagram>
</mxfile>
